<?xml version="1.0" standalone="no"?>
<!DOCTYPE svg PUBLIC "-//W3C//DTD SVG 20010904//EN"
 "http://www.w3.org/TR/2001/REC-SVG-20010904/DTD/svg10.dtd">
<svg version="1.0" xmlns="http://www.w3.org/2000/svg"
 width="1024.000000pt" height="1024.000000pt" viewBox="0 0 1024.000000 1024.000000"
 preserveAspectRatio="xMidYMid meet">
<metadata>
Created by potrace 1.14, written by Peter Selinger 2001-2017
</metadata>
<g transform="translate(0.000000,1024.000000) scale(0.100000,-0.100000)"
fill="#000000" stroke="none">
<path d="M0 5120 l0 -5120 5120 0 5120 0 0 5120 0 5120 -5120 0 -5120 0 0
-5120z m2252 3358 c25 -7 50 -25 66 -47 l27 -34 5 -1791 c6 -1966 1 -1833 65
-1942 67 -114 185 -196 350 -242 117 -33 173 -40 335 -41 285 -3 499 50 628
156 88 72 131 133 160 225 15 48 17 221 22 1844 l5 1791 27 34 c42 56 64 59
464 59 402 -1 413 -3 447 -70 16 -33 17 -141 15 -1965 l-3 -1930 -37 -110
c-130 -384 -457 -643 -958 -758 -148 -34 -209 -44 -380 -63 -143 -16 -567 -16
-730 0 -390 39 -696 133 -925 284 -87 58 -235 199 -285 272 -91 133 -146 279
-170 445 -6 44 -10 743 -9 1915 0 1537 2 1851 14 1883 13 39 36 61 85 84 36
16 727 18 782 1z m5413 -3 c99 -8 203 -19 230 -24 28 -6 88 -17 135 -26 118
-23 235 -56 305 -86 11 -4 49 -20 85 -35 193 -78 380 -220 494 -374 56 -76
131 -237 158 -340 23 -84 23 -94 23 -660 0 -513 -2 -583 -17 -647 -52 -211
-135 -360 -280 -499 -181 -174 -415 -289 -723 -357 -260 -58 -415 -69 -967
-74 l-468 -4 0 -802 c0 -896 4 -849 -70 -892 -34 -19 -51 -20 -415 -20 -364 0
-381 1 -415 20 -19 12 -43 36 -52 55 -17 33 -18 165 -18 2340 0 1495 4 2318
10 2341 12 44 44 74 90 87 22 6 353 10 875 11 657 1 879 -2 1020 -14z m1223
-6268 l2 -477 -3847 2 -3848 3 -3 478 -2 477 3847 -2 3848 -3 3 -478z"/>
<path d="M6645 7678 c-3 -7 -4 -353 -3 -768 l3 -755 395 -3 c411 -3 526 5 675
45 191 51 329 160 388 306 21 49 22 72 25 389 3 284 1 348 -13 400 -53 208
-243 339 -554 382 -147 21 -909 23 -916 4z"/>
</g>
</svg>
